<svg xmlns="http://www.w3.org/2000/svg" version="1.1" xmlns:xlink="http://www.w3.org/1999/xlink" xmlns:svgjs="http://svgjs.dev/svgjs" width="1500" height="825" viewBox="0 0 1500 825"><g transform="matrix(1,0,0,1,-0.9090909090909918,0.5223221140385021)"><svg viewBox="0 0 396 218" data-background-color="#4a5d5e" preserveAspectRatio="xMidYMid meet" height="825" width="1500" xmlns="http://www.w3.org/2000/svg" xmlns:xlink="http://www.w3.org/1999/xlink"><g id="tight-bounds" transform="matrix(1,0,0,1,0.2400000000000091,-0.1380196616489684)"><svg viewBox="0 0 395.52 218.27603932329794" height="218.27603932329794" width="395.52"><g><svg viewBox="0 0 395.52 218.27603932329794" height="218.27603932329794" width="395.52"><g transform="matrix(1,0,0,1,0,111.47156727627457)"><svg viewBox="0 0 395.52 106.80447204702337" height="106.80447204702337" width="395.52"><g id="textblocktransform"><svg viewBox="0 0 395.52 106.80447204702337" height="106.80447204702337" width="395.52" id="textblock"><g><svg viewBox="0 0 395.52 69.05648045134159" height="69.05648045134159" width="395.52"><g transform="matrix(1,0,0,1,0,0)"><svg width="395.52" viewBox="0.21372 -19.952810000000003 306.7823002185905 53.56319688731136" height="69.05648045134159" data-palette-color="#d2dbc8"><path d="M0.214 13.476l7.316-33.429 6.535 1.431 1.091 23.22c0.05 1.642-0.123 4.225-0.519 7.748v0l0.196 0.043c1.094-3.439 1.999-5.861 2.716-7.268v0l10.74-20.63 6.486 1.419-7.316 33.429-4.289-0.939 5.311-24.265c0.164-0.749 0.655-2.447 1.473-5.093v0l-0.195-0.043c-1.111 2.582-1.863 4.223-2.255 4.922v0l-11.983 22.805-3.858-0.844-1.361-25.726c-0.035-0.622 0.001-2.419 0.105-5.392v0l-0.195-0.043c-0.423 2.869-0.703 4.613-0.838 5.232v0l-5.311 24.265zM39.466 22.089c-1.768-0.301-3.252-1.095-4.453-2.382-1.196-1.279-1.559-3.295-1.09-6.049v0c0.564-3.312 2.071-5.392 4.522-6.239 2.457-0.846 5.798-0.91 10.024-0.19v0l0.569-3.342c0.229-1.347 0.113-2.432-0.349-3.255-0.469-0.817-1.476-1.357-3.021-1.62v0c-1.406-0.239-2.488-0.021-3.246 0.655-0.759 0.682-1.236 1.599-1.431 2.748v0l-0.099 0.582-3.983-0.678c0.001-0.203 0.045-0.564 0.134-1.083v0c0.391-2.294 1.448-3.936 3.172-4.928 1.718-0.992 3.838-1.274 6.362-0.844v0c2.589 0.441 4.435 1.398 5.537 2.871 1.095 1.471 1.445 3.37 1.048 5.697v0l-2.469 14.501c-0.095 0.559-0.036 1.008 0.176 1.348 0.213 0.341 0.516 0.544 0.91 0.612v0l1.577 0.269-0.476 2.799c-0.79 0.271-1.711 0.317-2.763 0.138v0c-1.045-0.178-1.87-0.613-2.476-1.304-0.611-0.699-0.965-1.561-1.061-2.585v0l-0.247-0.042c-0.834 0.967-1.85 1.653-3.048 2.058-1.205 0.403-2.478 0.491-3.819 0.263zM41.014 18.66c0.881 0.15 1.774 0.048 2.679-0.305 0.905-0.353 1.703-0.968 2.394-1.844 0.684-0.878 1.14-1.99 1.369-3.338v0l0.402-2.356c-2.951-0.503-5.219-0.544-6.806-0.124-1.586 0.42-2.539 1.566-2.858 3.439v0c-0.239 1.406-0.125 2.461 0.344 3.163 0.468 0.709 1.293 1.164 2.476 1.365zM57.566 33.548c-1.189-0.161-2.143-0.424-2.86-0.79v0l0.38-2.815 1.427 0.193c2.603 0.351 4.578-1.346 5.925-5.093v0l-4.447-27.078 4.45 0.6 2.303 16.123 0.702 4.818 0.198 0.026 1.779-4.583 5.79-14.929 4.103 0.554-9.951 23.772c-1.295 3.115-2.723 5.498-4.285 7.151-1.568 1.652-3.406 2.335-5.514 2.051zM83.147 28.143c-1.784-0.183-3.318-0.876-4.602-2.079-1.278-1.196-1.775-3.184-1.491-5.963v0c0.342-3.343 1.707-5.518 4.096-6.527 2.395-1.008 5.725-1.294 9.989-0.858v0l0.345-3.372c0.139-1.36-0.049-2.434-0.565-3.224-0.523-0.784-1.564-1.256-3.122-1.415v0c-1.419-0.145-2.484 0.145-3.195 0.869-0.711 0.731-1.127 1.677-1.245 2.838v0l-0.06 0.587-4.019-0.411c-0.013-0.202 0.008-0.566 0.061-1.09v0c0.237-2.315 1.182-4.024 2.836-5.128 1.648-1.105 3.745-1.527 6.292-1.266v0c2.613 0.267 4.518 1.099 5.716 2.495 1.191 1.395 1.666 3.267 1.426 5.614v0l-1.497 14.634c-0.058 0.564 0.031 1.008 0.265 1.334 0.235 0.326 0.551 0.509 0.949 0.549v0l1.592 0.163-0.289 2.825c-0.77 0.323-1.686 0.431-2.747 0.322v0c-1.054-0.108-1.907-0.487-2.558-1.136-0.657-0.657-1.067-1.493-1.231-2.508v0l-0.249-0.026c-0.768 1.02-1.736 1.772-2.904 2.256-1.175 0.483-2.439 0.655-3.793 0.517zM84.463 24.619c0.889 0.091 1.773-0.07 2.653-0.483 0.88-0.413 1.635-1.079 2.265-2 0.624-0.921 1.005-2.062 1.144-3.421v0l0.243-2.378c-2.978-0.305-5.244-0.195-6.798 0.33-1.555 0.524-2.429 1.732-2.623 3.622v0c-0.145 1.419 0.039 2.463 0.554 3.133 0.514 0.676 1.368 1.075 2.562 1.197zM124.902 31.144c-8.971-0.407-13.188-6.508-12.653-18.303v0c0.536-11.795 5.289-17.488 14.26-17.081v0c3.623 0.164 6.463 1.401 8.52 3.71 2.057 2.309 2.99 5.571 2.799 9.788v0l-4.485-0.204c0.133-2.924-0.429-5.171-1.686-6.744-1.263-1.572-3.04-2.41-5.332-2.514v0c-2.99-0.136-5.261 0.796-6.813 2.794-1.559 1.991-2.432 5.062-2.621 9.211v0l-0.113 2.497c-0.188 4.149 0.403 7.289 1.774 9.42 1.365 2.124 3.543 3.254 6.533 3.39v0c2.358 0.107 4.243-0.558 5.657-1.996 1.413-1.431 2.185-3.591 2.316-6.481v0l4.336 0.197c-0.193 4.249-1.407 7.407-3.644 9.474-2.242 2.06-5.192 3.008-8.848 2.842zM150.784 31.753c-3.093-0.015-5.424-1.15-6.994-3.405-1.562-2.254-2.332-5.708-2.309-10.361v0c0.023-4.653 0.826-8.099 2.41-10.338 1.591-2.239 3.933-3.351 7.027-3.336v0c3.093 0.015 5.424 1.15 6.993 3.404 1.569 2.254 2.342 5.708 2.32 10.362v0c-0.023 4.653-0.83 8.099-2.421 10.338-1.591 2.239-3.933 3.351-7.026 3.336zM150.801 28.113c3.393 0.017 5.105-3.018 5.135-9.105v0l0.009-1.9c0.03-6.08-1.652-9.128-5.045-9.145v0c-3.393-0.017-5.105 3.015-5.135 9.095v0l-0.009 1.9c-0.03 6.087 1.652 9.138 5.045 9.155zM165.59 31.047l-0.753-26.229 3.099-0.089 0.627 3.033 0.3-0.008c1.296-2.472 3.374-3.748 6.233-3.831v0c2.092-0.06 3.713 0.517 4.862 1.731 1.149 1.221 1.763 3.227 1.843 6.02v0l0.542 18.892-4.088 0.118-0.534-18.603c-0.049-1.693-0.399-2.87-1.052-3.531-0.646-0.662-1.569-0.975-2.768-0.941v0c-1.359 0.039-2.497 0.719-3.413 2.039-0.909 1.327-1.332 3.086-1.269 5.278v0l0.46 16.004zM195.892 30.309c-2.821 0.18-4.977-0.423-6.469-1.81-1.485-1.388-2.296-3.16-2.434-5.316v0c-0.026-0.399-0.037-0.676-0.033-0.83 0.011-0.148 0.015-0.238 0.013-0.271v0l4.281-0.274 0.032 0.499c0.1 1.557 0.57 2.699 1.411 3.427 0.849 0.734 1.905 1.061 3.169 0.98v0c1.124-0.072 2.037-0.474 2.739-1.207 0.708-0.727 1.023-1.702 0.945-2.927v0c-0.06-0.931-0.341-1.682-0.845-2.25-0.504-0.569-1.1-1.005-1.787-1.309-0.687-0.303-1.64-0.633-2.859-0.989v0c-1.496-0.405-2.705-0.829-3.629-1.271-0.93-0.442-1.742-1.131-2.437-2.069-0.695-0.938-1.093-2.201-1.194-3.792v0c-0.147-2.295 0.475-4.162 1.866-5.6 1.391-1.438 3.334-2.237 5.829-2.397v0c2.355-0.151 4.239 0.42 5.651 1.713 1.419 1.292 2.193 2.953 2.322 4.982v0l0.011 0.941-4.232 0.271-0.028-0.439c-0.074-1.164-0.419-2.118-1.034-2.86-0.615-0.742-1.568-1.072-2.859-0.99v0c-1.297 0.083-2.189 0.504-2.675 1.263-0.485 0.766-0.698 1.615-0.639 2.546v0c0.072 1.124 0.518 1.938 1.338 2.44 0.813 0.496 2.049 0.958 3.706 1.386v0c1.531 0.437 2.792 0.88 3.783 1.332 0.997 0.451 1.868 1.17 2.613 2.157 0.751 0.981 1.181 2.336 1.292 4.066v0c0.172 2.688-0.454 4.752-1.878 6.193-1.424 1.44-3.414 2.242-5.969 2.405zM216.105 28.653c-2.09 0.2-3.749-0.267-4.976-1.403-1.227-1.135-1.974-3.093-2.239-5.873v0l-1.802-18.824 4.071-0.39 1.773 18.526c0.161 1.686 0.59 2.837 1.285 3.453 0.696 0.623 1.638 0.878 2.826 0.764v0c1.36-0.13 2.45-0.887 3.268-2.271 0.819-1.378 1.124-3.161 0.915-5.352v0l-1.526-15.937 4.072-0.39 2.5 26.121-3.076 0.294-0.837-2.973-0.299 0.028c-1.123 2.545-3.107 3.954-5.955 4.227zM232.044 26.351l-4.343-35.797 4.06-0.493 4.344 35.798zM246.446 24.928c-1.644 0.23-2.909-0.171-3.794-1.205-0.885-1.034-1.448-2.409-1.688-4.126v0l-2.368-16.895-2.219 0.311-0.505-3.605 2.219-0.31-0.12-7.335 3.16-0.443 1.01 7.21 3.506-0.491 0.505 3.604-3.506 0.492 2.382 16.994c0.222 1.585 1.109 2.268 2.66 2.05v0l1.179-0.165 0.394 2.813c-0.329 0.248-0.758 0.476-1.288 0.685-0.523 0.208-1.032 0.347-1.527 0.416zM253.851 23.322l-3.985-25.936 4.043-0.621 3.984 25.936zM248.994-7.629l-0.718-4.675 4.191-0.644 0.718 4.675zM264.778 21.492l-4.689-25.817 3.05-0.554 1.076 2.904 0.295-0.053c0.91-2.638 2.772-4.213 5.586-4.725v0c2.06-0.374 3.749-0.047 5.067 0.981 1.319 1.034 2.229 2.925 2.728 5.673v0l3.378 18.596-4.025 0.731-3.326-18.31c-0.303-1.666-0.826-2.777-1.571-3.333-0.738-0.557-1.698-0.728-2.878-0.514v0c-1.338 0.243-2.361 1.086-3.067 2.529-0.699 1.448-0.853 3.251-0.461 5.409v0l2.862 15.752zM293.625 25.076c-2.011 0.447-3.698 0.217-5.06-0.69-1.356-0.908-2.229-2.24-2.619-3.997v0c-0.28-1.263-0.231-2.455 0.148-3.577 0.379-1.122 1.03-1.991 1.951-2.605v0c-0.745-0.278-1.379-0.718-1.901-1.319-0.523-0.601-0.87-1.289-1.042-2.063v0c-0.224-1.009-0.101-1.975 0.37-2.9 0.479-0.919 1.228-1.697 2.248-2.333v0c-2.346-1.186-3.83-3.175-4.45-5.967v0c-0.598-2.694-0.318-4.969 0.84-6.824 1.151-1.86 3.024-3.079 5.621-3.656v0c1.334-0.296 2.636-0.261 3.906 0.106v0c0.918-0.784 1.53-1.6 1.834-2.446 0.309-0.854 0.424-1.767 0.344-2.74v0l3.504-0.778c0.347 1.562 0.262 2.977-0.255 4.246-0.522 1.277-1.411 2.226-2.666 2.846v0c1.876 1.25 3.084 3.092 3.624 5.526v0c0.584 2.629 0.309 4.879-0.826 6.749-1.135 1.871-2.948 3.1-5.44 3.688v0l-2.675 0.594c-0.651 0.145-1.155 0.489-1.512 1.032-0.352 0.536-0.456 1.129-0.312 1.78v0c0.136 0.612 0.479 1.096 1.029 1.451 0.557 0.354 1.161 0.459 1.812 0.315v0l7.302-1.622c1.816-0.403 3.405-0.152 4.767 0.755 1.362 0.906 2.231 2.205 2.607 3.897v0c0.468 2.109 0.196 3.989-0.816 5.641-1.011 1.659-2.701 2.751-5.07 3.278v0zM292.777 3.086c1.399-0.311 2.375-1.023 2.926-2.135 0.553-1.106 0.646-2.489 0.277-4.149v0c-0.382-1.718-1.054-2.948-2.018-3.69-0.962-0.736-2.143-0.948-3.542-0.637v0c-1.393 0.309-2.359 1.016-2.9 2.119-0.539 1.11-0.625 2.491-0.257 4.145v0c0.383 1.725 1.049 2.956 1.998 3.694 0.951 0.745 2.123 0.963 3.516 0.653zM293.492 21.479l7.058-1.568c0.846-0.188 1.497-0.64 1.952-1.355 0.456-0.716 0.59-1.497 0.402-2.343v0c-0.194-0.872-0.612-1.527-1.256-1.965-0.644-0.438-1.453-0.548-2.43-0.331v0l-7.058 1.568c-0.976 0.217-1.653 0.657-2.031 1.322-0.378 0.664-0.471 1.433-0.277 2.305v0c0.195 0.879 0.616 1.543 1.262 1.994 0.641 0.459 1.434 0.583 2.378 0.373z" opacity="1" transform="matrix(1,0,0,1,0,0)" fill="#d2dbc8" class="wordmark-text-0" data-fill-palette-color="primary" id="text-0"></path></svg></g></svg></g><g transform="matrix(1,0,0,1,118.31980799999998,92.39195659759761)"><svg viewBox="0 0 158.88038400000002 14.412515449425758" height="14.412515449425758" width="158.88038400000002"><g transform="matrix(1,0,0,1,0,0)"><svg width="158.88038400000002" viewBox="1.73 -37.5 418.72999999999996 37.99" height="14.412515449425758" data-palette-color="#d2dbc8"><path d="M6.2-35.55L10.62-11.21 11.08-7.23 11.79-10.74 17.48-35.55 21.22-35.55 26.73-10.74 27.44-7.13 27.95-11.23 32.3-35.55 36.77-35.55 29.69 0 25.66 0 19.73-25.9 19.36-28 18.99-25.9 12.84 0 8.79 0 1.73-35.55 6.2-35.55ZM50 0.49L50 0.49Q45.07 0.49 42.43-2.45 39.79-5.4 39.74-11.08L39.74-11.08 39.74-14.28Q39.74-20.19 42.32-23.55 44.89-26.9 49.51-26.9L49.51-26.9Q54.15-26.9 56.44-23.95 58.74-21 58.79-14.75L58.79-14.75 58.79-11.91 44.04-11.91 44.04-11.3Q44.04-7.06 45.64-5.13 47.24-3.2 50.24-3.2L50.24-3.2Q52.15-3.2 53.6-3.92 55.05-4.64 56.32-6.2L56.32-6.2 58.57-3.47Q55.76 0.49 50 0.49ZM49.51-23.19L49.51-23.19Q46.82-23.19 45.53-21.35 44.24-19.51 44.06-15.63L44.06-15.63 54.47-15.63 54.47-16.21Q54.29-19.97 53.11-21.58 51.93-23.19 49.51-23.19ZM98.26-17.7L98.26-4.42 97.48-3.44Q94.11 0.49 87.61 0.49L87.61 0.49Q81.85 0.49 78.57-3.33 75.29-7.15 75.21-14.14L75.21-14.14 75.21-21.12Q75.21-28.59 78.2-32.31 81.19-36.04 87.15-36.04L87.15-36.04Q92.23-36.04 95.1-33.2 97.97-30.37 98.26-25.12L98.26-25.12 93.79-25.12Q93.52-28.44 91.95-30.31 90.37-32.18 87.18-32.18L87.18-32.18Q83.34-32.18 81.56-29.68 79.78-27.17 79.7-21.68L79.7-21.68 79.7-14.43Q79.7-9.06 81.76-6.19 83.81-3.32 87.64-3.32L87.64-3.32Q91.25-3.32 93.13-5.08L93.13-5.08 93.79-5.69 93.79-13.89 87.3-13.89 87.3-17.7 98.26-17.7ZM114.39 0.49L114.39 0.49Q109.46 0.49 106.83-2.45 104.19-5.4 104.14-11.08L104.14-11.08 104.14-14.28Q104.14-20.19 106.72-23.55 109.29-26.9 113.91-26.9L113.91-26.9Q118.54-26.9 120.84-23.95 123.13-21 123.18-14.75L123.18-14.75 123.18-11.91 108.44-11.91 108.44-11.3Q108.44-7.06 110.04-5.13 111.64-3.2 114.64-3.2L114.64-3.2Q116.54-3.2 118-3.92 119.45-4.64 120.72-6.2L120.72-6.2 122.96-3.47Q120.16 0.49 114.39 0.49ZM113.91-23.19L113.91-23.19Q111.22-23.19 109.93-21.35 108.63-19.51 108.46-15.63L108.46-15.63 118.86-15.63 118.86-16.21Q118.69-19.97 117.51-21.58 116.32-23.19 113.91-23.19ZM129.72-32.81L134.02-32.81 134.02-26.42 138-26.42 138-22.92 134.02-22.92 134.02-6.54Q134.02-4.98 134.53-4.17 135.05-3.37 136.29-3.37L136.29-3.37Q137.15-3.37 138.02-3.66L138.02-3.66 137.98 0Q136.51 0.49 134.97 0.49L134.97 0.49Q132.41 0.49 131.07-1.34 129.72-3.17 129.72-6.52L129.72-6.52 129.72-22.92 125.7-22.92 125.7-26.42 129.72-26.42 129.72-32.81ZM155.94-32.81L160.24-32.81 160.24-26.42 164.22-26.42 164.22-22.92 160.24-22.92 160.24-6.54Q160.24-4.98 160.75-4.17 161.26-3.37 162.51-3.37L162.51-3.37Q163.36-3.37 164.24-3.66L164.24-3.66 164.19 0Q162.73 0.49 161.19 0.49L161.19 0.49Q158.63 0.49 157.28-1.34 155.94-3.17 155.94-6.52L155.94-6.52 155.94-22.92 151.91-22.92 151.91-26.42 155.94-26.42 155.94-32.81ZM173.66-37.5L173.66-23.71Q176.13-26.9 179.96-26.9L179.96-26.9Q186.97-26.9 187.06-17.55L187.06-17.55 187.06 0 182.77 0 182.77-17.36Q182.77-20.46 181.73-21.77 180.69-23.07 178.62-23.07L178.62-23.07Q177.01-23.07 175.72-22 174.44-20.92 173.66-19.19L173.66-19.19 173.66 0 169.34 0 169.34-37.5 173.66-37.5ZM202.93 0.49L202.93 0.49Q198 0.49 195.36-2.45 192.73-5.4 192.68-11.08L192.68-11.08 192.68-14.28Q192.68-20.19 195.25-23.55 197.83-26.9 202.44-26.9L202.44-26.9Q207.08-26.9 209.38-23.95 211.67-21 211.72-14.75L211.72-14.75 211.72-11.91 196.97-11.91 196.97-11.3Q196.97-7.06 198.57-5.13 200.17-3.2 203.18-3.2L203.18-3.2Q205.08-3.2 206.53-3.92 207.99-4.64 209.25-6.2L209.25-6.2 211.5-3.47Q208.69 0.49 202.93 0.49ZM202.44-23.19L202.44-23.19Q199.76-23.19 198.46-21.35 197.17-19.51 197-15.63L197-15.63 207.4-15.63 207.4-16.21Q207.23-19.97 206.04-21.58 204.86-23.19 202.44-23.19ZM241.21-10.4L241.21-35.55 245.7-35.55 245.7-10.38Q245.7-5.27 243.1-2.39 240.5 0.49 236.11 0.49L236.11 0.49Q231.59 0.49 229.07-2.25 226.56-4.98 226.56-9.81L226.56-9.81 231.03-9.81Q231.03-6.76 232.37-5.05 233.71-3.34 236.11-3.34L236.11-3.34Q238.42-3.34 239.82-5.2 241.21-7.06 241.21-10.4L241.21-10.4ZM251.61-11.55L251.61-14.43Q251.61-20.19 254.4-23.55 257.2-26.9 261.79-26.9 266.38-26.9 269.17-23.63 271.97-20.36 272.04-14.72L272.04-14.72 272.04-11.94Q272.04-6.2 269.26-2.86 266.47 0.49 261.84 0.49L261.84 0.49Q257.25 0.49 254.47-2.76 251.7-6.01 251.61-11.55L251.61-11.55ZM255.93-14.45L255.93-11.94Q255.93-7.86 257.53-5.53 259.13-3.2 261.84-3.2L261.84-3.2Q267.55-3.2 267.72-11.45L267.72-11.45 267.72-14.43Q267.72-18.48 266.11-20.84 264.5-23.19 261.79-23.19L261.79-23.19Q259.13-23.19 257.53-20.84 255.93-18.48 255.93-14.45L255.93-14.45ZM296.74-14.55L296.74-11.94Q296.74-5.76 294.52-2.64 292.3 0.49 288.08 0.49L288.08 0.49Q283.88 0.49 281.78-3.13L281.78-3.13 281.56 0 277.63 0 277.63-37.5 281.93-37.5 281.93-23.51Q284.05-26.9 288.03-26.9L288.03-26.9Q292.37-26.9 294.55-23.83 296.72-20.75 296.74-14.55L296.74-14.55ZM292.45-11.74L292.45-14.4Q292.45-19.09 291.14-21.08 289.84-23.07 286.91-23.07L286.91-23.07Q283.56-23.07 281.93-19.46L281.93-19.46 281.93-6.88Q283.54-3.32 286.95-3.32L286.95-3.32Q289.88-3.32 291.15-5.37 292.42-7.42 292.45-11.74L292.45-11.74ZM322.28 0L314.32 0 314.32-35.55 322.79-35.55Q329.02-35.55 332.46-31.65 335.9-27.76 335.9-20.7L335.9-20.7 335.9-14.75Q335.9-7.69 332.41-3.85 328.92 0 322.28 0L322.28 0ZM322.79-31.69L318.79-31.69 318.79-3.83 322.37-3.83Q327.09-3.83 329.26-6.53 331.43-9.23 331.48-14.53L331.48-14.53 331.48-20.83Q331.48-26.44 329.32-29.06 327.16-31.69 322.79-31.69L322.79-31.69ZM341.34-11.55L341.34-14.43Q341.34-20.19 344.14-23.55 346.93-26.9 351.52-26.9 356.11-26.9 358.91-23.63 361.7-20.36 361.78-14.72L361.78-14.72 361.78-11.94Q361.78-6.2 358.99-2.86 356.21 0.49 351.57 0.49L351.57 0.49Q346.98 0.49 344.21-2.76 341.44-6.01 341.34-11.55L341.34-11.55ZM345.66-14.45L345.66-11.94Q345.66-7.86 347.26-5.53 348.86-3.2 351.57-3.2L351.57-3.2Q357.28-3.2 357.46-11.45L357.46-11.45 357.46-14.43Q357.46-18.48 355.84-20.84 354.23-23.19 351.52-23.19L351.52-23.19Q348.86-23.19 347.26-20.84 345.66-18.48 345.66-14.45L345.66-14.45ZM367.34-26.42L371.42-26.42 371.54-23.56Q374.05-26.9 377.96-26.9L377.96-26.9Q384.97-26.9 385.06-17.55L385.06-17.55 385.06 0 380.77 0 380.77-17.36Q380.77-20.46 379.73-21.77 378.69-23.07 376.62-23.07L376.62-23.07Q375.01-23.07 373.72-22 372.44-20.92 371.66-19.19L371.66-19.19 371.66 0 367.34 0 367.34-26.42ZM400.98 0.49L400.98 0.49Q396.05 0.49 393.41-2.45 390.78-5.4 390.73-11.08L390.73-11.08 390.73-14.28Q390.73-20.19 393.3-23.55 395.88-26.9 400.49-26.9L400.49-26.9Q405.13-26.9 407.43-23.95 409.72-21 409.77-14.75L409.77-14.75 409.77-11.91 395.02-11.91 395.02-11.3Q395.02-7.06 396.62-5.13 398.22-3.2 401.22-3.2L401.22-3.2Q403.13-3.2 404.58-3.92 406.03-4.64 407.3-6.2L407.3-6.2 409.55-3.47Q406.74 0.49 400.98 0.49ZM400.49-23.19L400.49-23.19Q397.81-23.19 396.51-21.35 395.22-19.51 395.05-15.63L395.05-15.63 405.45-15.63 405.45-16.21Q405.28-19.97 404.09-21.58 402.91-23.19 400.49-23.19ZM420.17-35.55L419.83-10.03 415.94-10.03 415.63-35.55 420.17-35.55ZM417.99-4.86L417.99-4.86Q419.22-4.86 419.84-4.11 420.46-3.37 420.46-2.27 420.46-1.17 419.84-0.45 419.22 0.27 417.99 0.27L417.99 0.27Q416.75 0.27 416.14-0.45 415.53-1.17 415.53-2.27 415.53-3.37 416.14-4.11 416.75-4.86 417.99-4.86Z" opacity="1" transform="matrix(1,0,0,1,0,0)" fill="#d2dbc8" class="slogan-text-1" data-fill-palette-color="secondary" id="text-1"></path></svg></g></svg></g></svg></g></svg></g><g transform="matrix(1,0,0,1,128.23651090508912,0)"><svg viewBox="0 0 139.04697818982171 106.80447204702337" height="106.80447204702337" width="139.04697818982171"><g><svg xmlns="http://www.w3.org/2000/svg" xmlns:xlink="http://www.w3.org/1999/xlink" version="1.1" x="0" y="0" viewBox="6.599999999999994 61.797251976575794 499.69999999999993 383.8285116059019" style="enable-background:new 0 0 512 512;" xml:space="preserve" height="106.80447204702337" width="139.04697818982171" class="icon-icon-0" data-fill-palette-color="accent" id="icon-0"><g fill="#f8f8ec" data-fill-palette-color="accent"><g fill="#f8f8ec" data-fill-palette-color="accent"><path d="M227 429.3c-50.5 21.9-173.4 21.8-220.4-0.5 4.6-15.3 8.4-31.4 14.5-46.4 3.3-8.1 9.4-17.6 16.7-21 38-17.9 75.6-42.6 119.8-16.4 3.7 2.2 8.1 3.4 12.3 4.2 29 5.3 44.1 24.4 51 51.4C223.5 410.2 225.1 420 227 429.3z" fill="#f8f8ec" data-fill-palette-color="accent"></path><path d="M317.3 252.6c5.4 10.4 11.3 21.7 17.2 33.1 0.6 1.2 2.4 1.1 2.9-0.2 1.6-4.2 3.7-12 5.1-15.4 0.6-1.5 1.2-1.6 1.3-3.2 0-1.9-3.3-4.6-5.7-7.6-0.9-1.1 0.2-2.8 1.6-2.5 6 1.5 11.5 0.5 16.8-0.6 1.4-0.3 2.5 1.4 1.6 2.5-2.1 2.7-4.7 4.5-5.9 7.5-0.2 0.5-0.1 1 0.2 1.4 1.5 2.5 3.9 12.7 5.7 17.8 0.5 1.3 2.2 1.4 2.9 0.2 6-11.5 12.1-23 18.1-34.4 0.3-0.6 1.1-1 1.7-0.8 58.9 12.2 68.5 39.8 72.6 83.7 0.1 0.9-0.6 1.7-1.6 1.7H243.2c-0.9 0-1.6-0.8-1.6-1.7 3-46.7 24.1-77.1 74.1-82.3C316.4 251.7 317 252 317.3 252.6z" fill="#f8f8ec" data-fill-palette-color="accent"></path><path d="M112 198.6c-22.9 0-45.5 0.2-68 0-27-0.2-23.2 3.7-23.4-23.7-0.2-20.5-0.3-41 0.3-61.5 0.1-3.5-2.4-10.5 12.8-10.5 33.9 0 67.9 0 103.2 0 0 16.9 0 32.5 0 48.1 0 24.6 0 24.6 23.6 27 4.9 18.7 3.5 21-14.9 20.6-8.5-0.2-17.8 0.3-21 10-1.7 5.2-3 9.7-5.9 14.6C116.8 221.5 116.8 206.7 112 198.6z" fill="#f8f8ec" data-fill-palette-color="accent"></path><path d="M275.1 169.8c-0.3 4.3-0.6 8.1-0.9 11.9-0.2 3.4-0.4 6.8-0.8 14.7-7.3-8-23.9-27.5-30.9-27.4-28.4 0.4-56.8-0.2-85.1 0.3-9.4 0.2-13.2-2.3-13-12.4 0.6-27.5 0.6-55 0-82.5-0.2-10.1 3.8-12.7 13.1-12.6 44.1 0.3 88.2 0.4 132.3 0 10.5-0.1 13.4 3.8 13.2 13.8-0.6 26.2-0.8 52.4 0.1 78.6 0.4 12.3-3.5 16.8-15.5 15.1C283.7 168.8 279.8 169.6 275.1 169.8zM294 71.5c-47.8 0-94.2 0-140.5 0 0 30.5 0 59.8 0 88.8 47.4 0 93.8 0 140.5 0C294 130.3 294 101.3 294 71.5z" fill="#f8f8ec" data-fill-palette-color="accent"></path><path d="M200.9 349.3c23.6 18.2 30.4 42.5 35.7 67.9 61.6 0 122.2 0 182.9-0.1 2.8 0 6.1-1.2 8.3-2.9 25.6-20.9 51-42.1 78.5-64.8C403.4 349.3 303.5 349.3 200.9 349.3zM337.8 395.9c-1.9 1.5-4.8 2.5-7.2 2.5-18.6 0.2-37.2 0.1-56.8 0.1 46.2-36.1 48.4-37.3 48.4-37.3s32.9-1.3 56.6 0.8C363.9 374.4 351 385.3 337.8 395.9z" fill="#f8f8ec" data-fill-palette-color="accent"></path></g><path d="M381.7 186.5c-1-1.8-2.1-1.9-2.9-1.8 0-1.3 0-2.5 0-3.5-0.1-23.3-14.7-35.1-33.4-34.9-18.7 0.2-34.4 13.4-34.3 36.7 0 0.5 0 1.1 0 1.7-1-0.1-2.5-0.3-3.3 1.7-0.7 1.9-0.6 7.1-0.6 10 0 2.9 1.8 5.6 2.4 7.5 0.5 1.6 1.5 2.6 2.4 3 0.8 7.8 2.2 15 4.9 18.5 6.2 8.3 19.6 22.4 29.4 22.3 9.8-0.1 21.5-14.4 27.6-22.8 2.5-3.5 3.8-10.7 4.4-18.5 0.6-0.5 1.2-1.4 1.6-2.5 0.7-1.9 2.4-4.6 2.4-7.5C382.3 193.5 382.4 188.4 381.7 186.5z" fill="#f8f8ec" data-fill-palette-color="accent"></path><g fill="#f8f8ec" data-fill-palette-color="accent"><path d="M136.5 322.9c3.6-3.9 6.9-8.1 9.3-11.4 2.5-3.5 3.8-10.7 4.4-18.5 0.6-0.5 1.2-1.4 1.6-2.5 0.7-1.9 2.4-4.6 2.4-7.5 0-2.9 0.1-8.1-0.6-10-1-1.8-2.1-1.9-2.9-1.8 0-1.3 0-2.5 0-3.5-0.1-23.3-14.7-35.1-33.4-34.9C98.6 233 82.9 246.2 83 269.6c0 0.5 0 1.1 0 1.7-1-0.1-2.5-0.3-3.3 1.7-0.7 1.9-0.6 7.1-0.6 10 0 2.9 1.8 5.6 2.4 7.5 0.5 1.6 1.5 2.6 2.4 3 0.8 7.8 2.2 15 4.9 18.5 2.4 3.1 5.7 7.1 9.5 10.8C110.7 320 123.3 319.4 136.5 322.9z" fill="#f8f8ec" data-fill-palette-color="accent"></path></g></g></svg></g></svg></g><g></g></svg></g><defs></defs></svg><rect width="395.52" height="218.27603932329794" fill="none" stroke="none" visibility="hidden"></rect></g></svg></g></svg>